<svg xmlns="http://www.w3.org/2000/svg" viewBox="0 0 24 24" class="size-6">
	<defs>
			<!-- Define the gradient -->
			<linearGradient id="custom-gradient" x1="0%" y1="0%" x2="100%" y2="100%">
				<stop offset="0%" style="stop-color:#1F3A6D; stop-opacity:1" />
				<stop offset="50%" style="stop-color:#61DAFB; stop-opacity:1" />
				<stop offset="100%" style="stop-color:#A3D9F3; stop-opacity:1" />
    </linearGradient>
		</defs>
  <path fill="url(#custom-gradient)" d="M11.622 1.602a.75.75 0 0 1 .756 0l2.25 1.313a.75.75 0 0 1-.756 1.295L12 3.118 10.128 4.21a.75.75 0 1 1-.756-1.295l2.25-1.313ZM5.898 5.81a.75.75 0 0 1-.27 1.025l-1.14.665 1.14.665a.75.75 0 1 1-.756 1.295L3.75 8.806v.944a.75.75 0 0 1-1.5 0V7.5a.75.75 0 0 1 .372-.648l2.25-1.312a.75.75 0 0 1 1.026.27Zm12.204 0a.75.75 0 0 1 1.026-.27l2.25 1.312a.75.75 0 0 1 .372.648v2.25a.75.75 0 0 1-1.5 0v-.944l-1.122.654a.75.75 0 1 1-.756-1.295l1.14-.665-1.14-.665a.75.75 0 0 1-.27-1.025Zm-9 5.25a.75.75 0 0 1 1.026-.27L12 11.882l1.872-1.092a.75.75 0 1 1 .756 1.295l-1.878 1.096V15a.75.75 0 0 1-1.5 0v-1.82l-1.878-1.095a.75.75 0 0 1-.27-1.025ZM3 13.5a.75.75 0 0 1 .75.75v1.82l1.878 1.095a.75.75 0 1 1-.756 1.295l-2.25-1.312a.75.75 0 0 1-.372-.648v-2.25A.75.75 0 0 1 3 13.5Zm18 0a.75.75 0 0 1 .75.75v2.25a.75.75 0 0 1-.372.648l-2.25 1.312a.75.75 0 1 1-.756-1.295l1.878-1.096V14.25a.75.75 0 0 1 .75-.75Zm-9 5.25a.75.75 0 0 1 .75.75v.944l1.122-.654a.75.75 0 1 1 .756 1.295l-2.25 1.313a.75.75 0 0 1-.756 0l-2.25-1.313a.75.75 0 1 1 .756-1.295l1.122.654V19.5a.75.75 0 0 1 .75-.75Z" clip-rule="evenodd" />
</svg>
